<mxfile host="app.diagrams.net" modified="2023-06-16T21:59:05.161Z" agent="Mozilla/5.0 (Windows NT 10.0; Win64; x64; rv:109.0) Gecko/20100101 Firefox/114.0" etag="I-9V2XtwVuxrR194fLXx" version="21.4.0" type="device">
  <diagram name="Seite-1" id="TMbkeV9O3iSP9Bwzq_WV">
    <mxGraphModel dx="1302" dy="688" grid="1" gridSize="10" guides="1" tooltips="1" connect="1" arrows="1" fold="1" page="1" pageScale="1" pageWidth="827" pageHeight="1169" math="0" shadow="0">
      <root>
        <mxCell id="0" />
        <mxCell id="1" parent="0" />
        <mxCell id="ISAqEEUw3sVRCJj47M9--1" value="TourPlanner Application" style="rounded=0;whiteSpace=wrap;html=1;fillColor=none;verticalAlign=top;" vertex="1" parent="1">
          <mxGeometry x="110" y="20" width="230" height="520" as="geometry" />
        </mxCell>
        <mxCell id="ISAqEEUw3sVRCJj47M9--14" style="rounded=0;orthogonalLoop=1;jettySize=auto;html=1;exitX=1;exitY=0.3333333333333333;exitDx=0;exitDy=0;exitPerimeter=0;entryX=0;entryY=0.5;entryDx=0;entryDy=0;" edge="1" parent="1" source="ISAqEEUw3sVRCJj47M9--2" target="ISAqEEUw3sVRCJj47M9--3">
          <mxGeometry relative="1" as="geometry" />
        </mxCell>
        <mxCell id="ISAqEEUw3sVRCJj47M9--15" style="rounded=0;orthogonalLoop=1;jettySize=auto;html=1;exitX=1;exitY=0.3333333333333333;exitDx=0;exitDy=0;exitPerimeter=0;entryX=0;entryY=0.5;entryDx=0;entryDy=0;" edge="1" parent="1" source="ISAqEEUw3sVRCJj47M9--2" target="ISAqEEUw3sVRCJj47M9--6">
          <mxGeometry relative="1" as="geometry" />
        </mxCell>
        <mxCell id="ISAqEEUw3sVRCJj47M9--16" style="rounded=0;orthogonalLoop=1;jettySize=auto;html=1;exitX=1;exitY=0.3333333333333333;exitDx=0;exitDy=0;exitPerimeter=0;entryX=0;entryY=0.5;entryDx=0;entryDy=0;" edge="1" parent="1" source="ISAqEEUw3sVRCJj47M9--2" target="ISAqEEUw3sVRCJj47M9--5">
          <mxGeometry relative="1" as="geometry" />
        </mxCell>
        <mxCell id="ISAqEEUw3sVRCJj47M9--17" style="rounded=0;orthogonalLoop=1;jettySize=auto;html=1;exitX=1;exitY=0.3333333333333333;exitDx=0;exitDy=0;exitPerimeter=0;entryX=0;entryY=0.5;entryDx=0;entryDy=0;" edge="1" parent="1" source="ISAqEEUw3sVRCJj47M9--2" target="ISAqEEUw3sVRCJj47M9--4">
          <mxGeometry relative="1" as="geometry" />
        </mxCell>
        <mxCell id="ISAqEEUw3sVRCJj47M9--18" style="rounded=0;orthogonalLoop=1;jettySize=auto;html=1;exitX=1;exitY=0.3333333333333333;exitDx=0;exitDy=0;exitPerimeter=0;entryX=0;entryY=0.5;entryDx=0;entryDy=0;" edge="1" parent="1" source="ISAqEEUw3sVRCJj47M9--2" target="ISAqEEUw3sVRCJj47M9--7">
          <mxGeometry relative="1" as="geometry" />
        </mxCell>
        <mxCell id="ISAqEEUw3sVRCJj47M9--2" value="User" style="shape=umlActor;verticalLabelPosition=bottom;verticalAlign=top;html=1;outlineConnect=0;" vertex="1" parent="1">
          <mxGeometry x="10" y="260" width="30" height="60" as="geometry" />
        </mxCell>
        <mxCell id="ISAqEEUw3sVRCJj47M9--3" value="Create/Modify/Delete Tour" style="ellipse;whiteSpace=wrap;html=1;fillColor=none;" vertex="1" parent="1">
          <mxGeometry x="130" y="245" width="190" height="70" as="geometry" />
        </mxCell>
        <mxCell id="ISAqEEUw3sVRCJj47M9--4" value="Create/Modify/Delete TourLog" style="ellipse;whiteSpace=wrap;html=1;fillColor=none;" vertex="1" parent="1">
          <mxGeometry x="130" y="335" width="190" height="70" as="geometry" />
        </mxCell>
        <mxCell id="ISAqEEUw3sVRCJj47M9--5" value="Get a list of Tours" style="ellipse;whiteSpace=wrap;html=1;fillColor=none;" vertex="1" parent="1">
          <mxGeometry x="130" y="65" width="190" height="70" as="geometry" />
        </mxCell>
        <mxCell id="ISAqEEUw3sVRCJj47M9--6" value="Search in existing Tours" style="ellipse;whiteSpace=wrap;html=1;fillColor=none;" vertex="1" parent="1">
          <mxGeometry x="130" y="155" width="190" height="70" as="geometry" />
        </mxCell>
        <mxCell id="ISAqEEUw3sVRCJj47M9--7" value="Create Tour/Summarize Report" style="ellipse;whiteSpace=wrap;html=1;fillColor=none;" vertex="1" parent="1">
          <mxGeometry x="130" y="425" width="190" height="70" as="geometry" />
        </mxCell>
      </root>
    </mxGraphModel>
  </diagram>
</mxfile>
